<svg xmlns="http://www.w3.org/2000/svg" xmlns:xlink="http://www.w3.org/1999/xlink" width="166" height="26" viewBox="0 0 166 26">
    <defs>
        <path id="a" d="M0 26h166V0H0z"/>
    </defs>
    <g fill="none" fill-rule="evenodd">
        <path fill="#23306B" d="M0 19.133l.767-1.78c.74.614 1.493 1.053 2.26 1.32.767.267 1.634.4 2.6.4 1.024 0 1.806-.182 2.346-.548.54-.366.81-.894.81-1.586 0-.573-.18-1.028-.54-1.364-.36-.336-.957-.602-1.79-.8l-2.332-.563c-1.175-.277-2.074-.751-2.7-1.424-.625-.671-.938-1.501-.938-2.49 0-1.284.483-2.322 1.45-3.113C2.899 6.395 4.188 6 5.798 6c.967 0 1.886.163 2.758.489.871.326 1.6.796 2.188 1.408l-.767 1.75c-1.27-1.127-2.663-1.69-4.179-1.69-.966 0-1.72.192-2.26.577-.54.386-.81.925-.81 1.616 0 .574.166 1.033.498 1.379.331.346.867.607 1.606.785l2.36.593c1.287.317 2.245.796 2.87 1.438.625.642.938 1.478.938 2.505 0 1.265-.488 2.273-1.464 3.024C8.56 20.625 7.229 21 5.543 21 3.212 21 1.364 20.378 0 19.133M27 11.415V20h-2.314v-8.445c0-1.272-.253-2.198-.757-2.778-.505-.58-1.31-.87-2.415-.87-1.276 0-2.295.384-3.057 1.15-.762.768-1.143 1.806-1.143 3.115V20H15V6.337h2.286V8.58A4.642 4.642 0 0 1 19.2 6.66C20.019 6.22 20.952 6 22 6c3.333 0 5 1.805 5 5.415M66 6v13.802h-2.301V17.45a4.552 4.552 0 0 1-1.878 1.898c-.806.435-1.714.652-2.724.652-1.69 0-2.961-.458-3.815-1.374-.855-.917-1.282-2.272-1.282-4.067V6h2.36v8.502c0 1.229.251 2.13.757 2.707.504.576 1.3.864 2.388.864 1.242 0 2.243-.392 3-1.176.757-.784 1.136-1.819 1.136-3.104V6H66zM78 19.882l-.11 1.994a7.224 7.224 0 0 1-1.38.124c-1.62 0-2.84-.477-3.659-1.433-.819-.955-1.228-2.284-1.228-3.987V8.604H69V6.611h2.623V2h2.236v4.61h3.81v1.994h-3.81v7.789c0 2.388.975 3.582 2.926 3.582.405 0 .81-.03 1.215-.093M89.873 6H92l-7.564 20h-2.18l2.154-5.585L79 6h2.258l4.281 11.952zM98.192 6.243h4.07v1.808h-4.07V20h-2.39V8.05H93V6.244h2.803v-.452c0-1.827.476-3.21 1.43-4.153.954-.941 2.424-1.469 4.41-1.582l1.18-.056.177 1.78-1.357.084c-1.2.076-2.075.4-2.625.975-.55.574-.826 1.455-.826 2.641v.763zM113 7.964l-1.344.14c-1.268.132-2.186.571-2.752 1.319-.567.748-.85 1.674-.85 2.777V20H106V6.337h2.003v2.384c.694-1.59 2.055-2.477 4.084-2.665l.735-.056.178 1.964z"/>
        <mask id="b" fill="#fff">
            <use xlink:href="#a"/>
        </mask>
        <path fill="#23306B" d="M114.327 20h3.306V6.046h-3.306V20zM114 2.607h4V0h-4v2.607zM124.529 9.053c-.705.791-1.122 1.908-1.25 3.35h7.771c-.036-1.462-.375-2.583-1.016-3.365-.64-.78-1.537-1.17-2.69-1.17-1.172 0-2.11.395-2.815 1.185zM133 13.945h-9.776c.073 1.68.495 2.95 1.263 3.809.77.86 1.858 1.29 3.268 1.29 1.556 0 2.984-.574 4.284-1.72l.741 1.75c-.586.592-1.336 1.062-2.251 1.407a7.871 7.871 0 0 1-2.801.519c-2.087 0-3.73-.662-4.93-1.986C121.6 17.69 121 15.862 121 13.53c0-1.483.265-2.791.796-3.928.531-1.136 1.277-2.02 2.238-2.653.962-.632 2.055-.949 3.282-.949 1.775 0 3.167.628 4.174 1.882 1.006 1.256 1.51 2.98 1.51 5.173v.89zM149 11.415V20h-2.314v-8.445c0-1.272-.253-2.198-.757-2.778-.505-.58-1.31-.87-2.415-.87-1.276 0-2.295.384-3.057 1.15-.762.768-1.143 1.806-1.143 3.115V20H137V6.337h2.286V8.58A4.64 4.64 0 0 1 141.2 6.66c.819-.44 1.752-.659 2.8-.659 3.333 0 5 1.805 5 5.415M162.63 16.756c.724-.908 1.086-2.196 1.086-3.863 0-1.666-.362-2.95-1.086-3.848-.724-.9-1.753-1.349-3.088-1.349-1.335 0-2.373.45-3.116 1.349-.742.899-1.113 2.163-1.113 3.792 0 1.667.37 2.964 1.113 3.89.743.928 1.781 1.39 3.116 1.39 1.335 0 2.364-.453 3.088-1.361zM166 0v19.803h-2.284v-2.5a4.516 4.516 0 0 1-1.819 1.994c-.8.469-1.734.703-2.806.703-1.203 0-2.265-.3-3.186-.899-.922-.599-1.636-1.437-2.144-2.514-.507-1.077-.761-2.327-.761-3.75 0-1.405.254-2.64.761-3.708.508-1.067 1.222-1.891 2.144-2.472.92-.58 1.983-.87 3.186-.87 1.072 0 2.007.234 2.806.702a4.523 4.523 0 0 1 1.819 1.994V0H166zM32.541 15.722c-.8 1.124 4.884 5.76 6.784 5.237.184-.05.324-.143.324-.143.129-.282.086-1.398.17-3.12L40 6.102c.001-.055-.047-.1-.11-.1-.657-.014-4.127.04-7.383 2.464-3.615 2.691-2.777 6.074-.881 6.113.9.018 2.415-.254 2.78-1.13.273-.652-.33-1.018-.105-2.174.067-.346.24-1.238.944-1.46.445-.139.894.05.991.09.359.153 1.504 1.378 1.22 2.901-.29 1.555-1.866 2.327-1.995 2.388-1.482.699-2.586.06-2.92.528" mask="url(#b)"/>
        <path fill="#23306B" d="M47.459 15.722c.8 1.124-4.885 5.76-6.784 5.237-.184-.05-.324-.143-.324-.143-.129-.282-.086-1.398-.17-3.12L40 6.102c-.001-.054.047-.1.11-.1.657-.014 4.127.04 7.383 2.464 3.615 2.69 2.777 6.074.881 6.113-.9.018-2.415-.254-2.78-1.13-.273-.652.33-1.018.105-2.174-.067-.346-.24-1.238-.944-1.46-.445-.139-.894.05-.991.09-.359.153-1.504 1.379-1.22 2.901.29 1.555 1.866 2.327 1.995 2.388 1.482.699 2.586.06 2.92.528M58 11.5a.5.5 0 1 1-1 0 .5.5 0 0 1 1 0M63 11.5a.5.5 0 1 1-1 0 .5.5 0 0 1 1 0M61 14.5a.5.5 0 1 1-1 0 .5.5 0 0 1 1 0M20 11.5a.5.5 0 1 1-1 0 .5.5 0 0 1 1 0M23 11.5a.5.5 0 1 1-1 0 .5.5 0 0 1 1 0M22 14.5a.5.5 0 1 1-1 0 .5.5 0 0 1 1 0" mask="url(#b)"/>
    </g>
</svg>
