<svg xmlns="http://www.w3.org/2000/svg" width="24" height="24" viewBox="0 0 24 24">
    <path fill="#23306B" fill-rule="nonzero" d="M11.993 9.608a2.388 2.388 0 0 0-2.386 2.385 2.389 2.389 0 0 0 2.386 2.385 2.388 2.388 0 0 0 2.385-2.385 2.388 2.388 0 0 0-2.385-2.385zm0 0a2.388 2.388 0 0 0-2.386 2.385 2.389 2.389 0 0 0 2.386 2.385 2.388 2.388 0 0 0 2.385-2.385 2.388 2.388 0 0 0-2.385-2.385zm3.973-3.89H8.02a2.303 2.303 0 0 0-2.3 2.301v7.947c0 1.269 1.032 2.3 2.3 2.3h7.947c1.269 0 2.3-1.031 2.3-2.3V8.02c0-1.268-1.031-2.3-2.3-2.3zm-3.973 10.406a4.136 4.136 0 0 1-4.13-4.131 4.135 4.135 0 0 1 4.13-4.13 4.136 4.136 0 0 1 4.13 4.13 4.136 4.136 0 0 1-4.13 4.13zm4.263-7.408a.978.978 0 0 1 0-1.954.978.978 0 0 1 0 1.954zm-4.263.892a2.388 2.388 0 0 0-2.386 2.385 2.389 2.389 0 0 0 2.386 2.385 2.388 2.388 0 0 0 2.385-2.385 2.388 2.388 0 0 0-2.385-2.385zm3.973-3.89H8.02a2.303 2.303 0 0 0-2.3 2.301v7.947c0 1.269 1.032 2.3 2.3 2.3h7.947c1.269 0 2.3-1.031 2.3-2.3V8.02c0-1.268-1.031-2.3-2.3-2.3zm-3.973 10.406a4.136 4.136 0 0 1-4.13-4.131 4.135 4.135 0 0 1 4.13-4.13 4.136 4.136 0 0 1 4.13 4.13 4.136 4.136 0 0 1-4.13 4.13zm4.263-7.408a.978.978 0 0 1 0-1.954.978.978 0 0 1 0 1.954zm-4.263.892a2.388 2.388 0 0 0-2.386 2.385 2.389 2.389 0 0 0 2.386 2.385 2.388 2.388 0 0 0 2.385-2.385 2.388 2.388 0 0 0-2.385-2.385zM0 0v23.986h23.986V0H0zm20.012 15.966a4.05 4.05 0 0 1-4.046 4.046H8.02a4.05 4.05 0 0 1-4.045-4.046V8.02a4.05 4.05 0 0 1 4.045-4.045h7.947a4.05 4.05 0 0 1 4.046 4.045v7.947zM15.966 5.72H8.02a2.303 2.303 0 0 0-2.3 2.3v7.947c0 1.269 1.032 2.3 2.3 2.3h7.947c1.269 0 2.3-1.031 2.3-2.3V8.02c0-1.268-1.031-2.3-2.3-2.3zm-3.973 10.405a4.136 4.136 0 0 1-4.13-4.131 4.135 4.135 0 0 1 4.13-4.13 4.136 4.136 0 0 1 4.13 4.13 4.136 4.136 0 0 1-4.13 4.13zm4.263-7.408a.978.978 0 0 1 0-1.954.978.978 0 0 1 0 1.954zm-4.263.892a2.388 2.388 0 0 0-2.386 2.385 2.389 2.389 0 0 0 2.386 2.385 2.388 2.388 0 0 0 2.385-2.385 2.388 2.388 0 0 0-2.385-2.385zm0 0a2.388 2.388 0 0 0-2.386 2.385 2.389 2.389 0 0 0 2.386 2.385 2.388 2.388 0 0 0 2.385-2.385 2.388 2.388 0 0 0-2.385-2.385zm0 0a2.388 2.388 0 0 0-2.386 2.385 2.389 2.389 0 0 0 2.386 2.385 2.388 2.388 0 0 0 2.385-2.385 2.388 2.388 0 0 0-2.385-2.385zm3.973-3.89H8.02a2.303 2.303 0 0 0-2.3 2.301v7.947c0 1.269 1.032 2.3 2.3 2.3h7.947c1.269 0 2.3-1.031 2.3-2.3V8.02c0-1.268-1.031-2.3-2.3-2.3zm-3.973 10.406a4.136 4.136 0 0 1-4.13-4.131 4.135 4.135 0 0 1 4.13-4.13 4.136 4.136 0 0 1 4.13 4.13 4.136 4.136 0 0 1-4.13 4.13zm4.263-7.408a.978.978 0 0 1 0-1.954.978.978 0 0 1 0 1.954zm-4.263.892a2.388 2.388 0 0 0-2.386 2.385 2.389 2.389 0 0 0 2.386 2.385 2.388 2.388 0 0 0 2.385-2.385 2.388 2.388 0 0 0-2.385-2.385zm0 0a2.388 2.388 0 0 0-2.386 2.385 2.389 2.389 0 0 0 2.386 2.385 2.388 2.388 0 0 0 2.385-2.385 2.388 2.388 0 0 0-2.385-2.385zm0 0a2.388 2.388 0 0 0-2.386 2.385 2.389 2.389 0 0 0 2.386 2.385 2.388 2.388 0 0 0 2.385-2.385 2.388 2.388 0 0 0-2.385-2.385zm3.973-3.89H8.02a2.303 2.303 0 0 0-2.3 2.301v7.947c0 1.269 1.032 2.3 2.3 2.3h7.947c1.269 0 2.3-1.031 2.3-2.3V8.02c0-1.268-1.031-2.3-2.3-2.3zm-3.973 10.406a4.136 4.136 0 0 1-4.13-4.131 4.135 4.135 0 0 1 4.13-4.13 4.136 4.136 0 0 1 4.13 4.13 4.136 4.136 0 0 1-4.13 4.13zm4.263-7.408a.978.978 0 0 1 0-1.954.978.978 0 0 1 0 1.954zm-4.263.892a2.388 2.388 0 0 0-2.386 2.385 2.389 2.389 0 0 0 2.386 2.385 2.388 2.388 0 0 0 2.385-2.385 2.388 2.388 0 0 0-2.385-2.385z"/>
</svg>
